<?xml version="1.0" encoding="UTF-8"?><svg id="Layer_1" xmlns="http://www.w3.org/2000/svg" viewBox="0 0 16 16"><circle cx="8" cy="8" r="7.34" fill="#fff" stroke="#231f20" stroke-miterlimit="10"/><path d="m11.27,6.56v.26h-.26v-.26h.26Zm-.26.26v.26h.26v-.26h-.26Zm0,.26v.27h.26v-.27h-.26Zm0,.27v.26h.26v-.26h-.26Zm0,.26v.27h.26v-.27h-.26Zm0,.27v.26h.26v-.26h-.26Zm0,.26v.27h.26v-.27h-.26Zm0,.27v.26h.26v-.26h-.26Zm0,.53h.26v-.27h-.26v.27Zm.26,2.88v-.26h-.26v.26h.26Zm0,.27v-.27h-.26v.27h.26Zm0,.26v-.26h-.26v.26h.26Zm0,.27v-.27h-.26v.27h.26Zm-.26-6.56v-.27h-.26v.27h.26Zm0,.26v-.26h-.26v.26h.26Zm0,.27v-.27h-.26v.27h.26Zm-.26.26h.26v-.26h-.26v.26Zm0,.26h.26v-.26h-.26v.26Zm0,.27h.26v-.27h-.26v.27Zm0,.26h.26v-.26h-.26v.26Zm0,.27h.26v-.27h-.26v.27Zm0,.26h.26v-.26h-.26v.26Zm0,.27h.26v-.27h-.26v.27Zm0,.26h.26v-.26h-.26v.26Zm0,.27h.26v-.27h-.26v.27Zm0,.26h.26v-.26h-.26v.26Zm0,.26h.26v-.26h-.26v.26Zm0,.27h.26v-.27h-.26v.27Zm.26,1.84v-.27h-.26v.27h.26Zm0,.26v-.26h-.26v.26h.26Zm-.26.27h.26v-.27h-.26v.27Zm0,.26h.26v-.26h-.26v.26Zm0,.27h.26v-.27h-.26v.27Zm0-7.08v-.27h-.27v.27h.27Zm0,.26v-.26h-.27v.26h.27Zm0,.27v-.27h-.27v.27h.27Zm0,.26v-.26h-.27v.26h.27Zm-.27.53h.27v-.26h-.27v.26Zm0,.26h.27v-.26h-.27v.26Zm0,.27h.27v-.27h-.27v.27Zm0,.26h.27v-.26h-.27v.26Zm0,.27h.27v-.27h-.27v.27Zm0,1.31h.27v-.26h-.27v.26Zm0,.26h.27v-.26h-.27v.26Zm0,.27h.27v-.27h-.27v.27Zm0,.26h.27v-.26h-.27v.26Zm0,.27h.27v-.27h-.27v.27Zm.27,1.04v-.26h-.27v.26h.27Zm-.27.27h.27v-.27h-.27v.27Zm0,.26h.27v-.26h-.27v.26Zm0,.27h.27v-.27h-.27v.27Zm0,.26h.27v-.26h-.27v.26Zm0,.27h.27v-.27h-.27v.27Zm0,.26h.27v-.26h-.27v.26Zm-.26-8.13v.26h.26v-.26h-.26Zm0,.26v.26h.26v-.26h-.26Zm0,.26v.27h.26v-.27h-.26Zm0,.27v.26h.26v-.26h-.26Zm0,.26v.27h.26v-.27h-.26Zm0,.53v.27h.26v-.27h-.26Zm0,1.84h.26v-.26h-.26v.26Zm0,.27h.26v-.27h-.26v.27Zm0,1.31h.26v-.27h-.26v.27Zm0,.26h.26v-.26h-.26v.26Zm0,.27h.26v-.27h-.26v.27Zm0,.26h.26v-.26h-.26v.26Zm0,.78h.26v-.26h-.26v.26Zm0,.27h.26v-.27h-.26v.27Zm0,.26h.26v-.26h-.26v.26Zm0,.27h.26v-.27h-.26v.27Zm0,.26h.26v-.26h-.26v.26Zm0,.27h.26v-.27h-.26v.27Zm0,.26h.26v-.26h-.26v.26Zm0-8.13v-.27h-.27v.27h.27Zm0,.26v-.26h-.27v.26h.27Zm0,.26v-.26h-.27v.26h.27Zm0,.27v-.27h-.27v.27h.27Zm-.27,1.05h.27v-.27h-.27v.27Zm0,2.09h.27v-.26h-.27v.26Zm0,1.58h.27v-.27h-.27v.27Zm0,.26h.27v-.26h-.27v.26Zm0,.27h.27v-.27h-.27v.27Zm0,.52h.27v-.26h-.27v.26Zm0,.27h.27v-.27h-.27v.27Zm0,.26h.27v-.26h-.27v.26Zm0,.27h.27v-.27h-.27v.27Zm0,.26h.27v-.26h-.27v.26Zm0,.27h.27v-.27h-.27v.27Zm0,.26h.27v-.26h-.27v.26Zm0-8.39v-.26h-.26v.26h.26Zm0,.27v-.27h-.26v.27h.26Zm0,.26v-.26h-.26v.26h.26Zm0,1.31v-.26h-.26v.26h.26Zm-.26,2.36h.26v-.26h-.26v.26Zm0,1.84h.26v-.26h-.26v.26Zm0,.27h.26v-.27h-.26v.27Zm0,.26h.26v-.26h-.26v.26Zm0,.26h.26v-.26h-.26v.26Zm0,.27h.26v-.27h-.26v.27Zm0,.26h.26v-.26h-.26v.26Zm0,.27h.26v-.27h-.26v.27Zm0,.26h.26v-.26h-.26v.26Zm0,.27h.26v-.27h-.26v.27Zm0,.26h.26v-.26h-.26v.26Zm0-8.65v-.27h-.27v.27h.27Zm0,.26v-.26h-.27v.26h.27Zm0,.27v-.27h-.27v.27h.27Zm0,.78v-.27h-.27v.27h.27Zm0,.26v-.26h-.27v.26h.27Zm0,.27v-.27h-.27v.27h.27Zm0,.53v-.27h-.27v.27h.27Zm-.27,2.36h.27v-.27h-.27v.27Zm0,1.84h.27v-.27h-.27v.27Zm0,.26h.27v-.26h-.27v.26Zm0,.26h.27v-.26h-.27v.26Zm0,.27h.27v-.27h-.27v.27Zm0,.26h.27v-.26h-.27v.26Zm0,.27h.27v-.27h-.27v.27Zm0,.26h.27v-.26h-.27v.26Zm0,.27h.27v-.27h-.27v.27Zm0,.26h.27v-.26h-.27v.26Zm-.26-9.18v.26h.26v-.26h-.26Zm0,.26v.27h.26v-.27h-.26Zm0,1.05v.26h.26v-.26h-.26Zm0,1.31v.27h.26v-.27h-.26Zm0,2.36v.27h.26v-.27h-.26Zm0,2.1v.26h.26v-.26h-.26Zm0,.26v.26h.26v-.26h-.26Zm0,.26v.27h.26v-.27h-.26Zm0,.27v.26h.26v-.26h-.26Zm0,.26v.27h.26v-.27h-.26Zm0,.27v.26h.26v-.26h-.26Zm0,.26v.27h.26v-.27h-.26Zm0,.27v.26h.26v-.26h-.26Zm0-8.92v-.27h-.26v.27h.26Zm0,.26v-.26h-.26v.26h.26Zm-.26.27h.26v-.27h-.26v.27Zm0,4.72h.26v-.27h-.26v.27Zm0,2.35h.26v-.26h-.26v.26Zm0,.27h.26v-.27h-.26v.27Zm0,.26h.26v-.26h-.26v.26Zm0,.27h.26v-.27h-.26v.27Zm0,.26h.26v-.26h-.26v.26Zm0,.27h.26v-.27h-.26v.27Zm0,.26h.26v-.26h-.26v.26Zm0-9.18v-.27h-.27v.27h.27Zm0,.26v-.26h-.27v.26h.27Zm-.27,5.25h.27v-.26h-.27v.26Zm0,2.09h.27v-.26h-.27v.26Zm0,.27h.27v-.27h-.27v.27Zm0,.26h.27v-.26h-.27v.26Zm0,.27h.27v-.27h-.27v.27Zm0,.26h.27v-.26h-.27v.26Zm0,.27h.27v-.27h-.27v.27Zm.27.26v-.26h-.27v.26h.27Zm-.27-9.44v-.26h-.26v.26h.26Zm0,.27v-.27h-.26v.27h.26Zm-.26,2.09h.26v-.26h-.26v.26Zm0,5.77h.26v-.27h-.26v.27Zm0,.26h.26v-.26h-.26v.26Zm0,.27h.26v-.27h-.26v.27Zm0,.26h.26v-.26h-.26v.26Zm0,.27h.26v-.27h-.26v.27Zm0-9.19v-.26h-.27v.26h.27Zm0,.27v-.27h-.27v.27h.27Zm-.27,2.36h.27v-.27h-.27v.27Zm0,5.51h.27v-.27h-.27v.27Zm0,.26h.27v-.26h-.27v.26Zm0,.27h.27v-.27h-.27v.27Zm0,.26h.27v-.26h-.27v.26Zm0,.27h.27v-.27h-.27v.27Zm0-9.19v-.26h-.26v.26h.26Zm0,.27v-.27h-.26v.27h.26Zm-.26,2.62h.26v-.26h-.26v.26Zm0,5.25h.26v-.27h-.26v.27Zm0,.26h.26v-.26h-.26v.26Zm0,.27h.26v-.27h-.26v.27Zm0,.26h.26v-.26h-.26v.26Zm.26.27v-.27h-.26v.27h.26Zm-.26-9.19v-.26h-.27v.26h.27Zm0,.27v-.27h-.27v.27h.27Zm-.27,2.62h.27v-.26h-.27v.26Zm0,5.25h.27v-.27h-.27v.27Zm0,.26h.27v-.26h-.27v.26Zm0,.27h.27v-.27h-.27v.27Zm.27.26v-.26h-.27v.26h.27Zm-.27-8.92v-.26h-.26v.26h.26Zm0,.27v-.27h-.26v.27h.26Zm-.26,2.09h.26v-.26h-.26v.26Zm0,.53h.26v-.26h-.26v.26Zm0,5.25h.26v-.27h-.26v.27Zm0,.26h.26v-.26h-.26v.26Zm.26.27v-.27h-.26v.27h.26Zm-.26-8.66v-.26h-.27v.26h.27Zm-.27.27h.27v-.27h-.27v.27Zm0,1.84h.27v-.27h-.27v.27Zm0,1.05h.27v-.27h-.27v.27Zm0,4.71h.27v-.26h-.27v.26Zm0,.27h.27v-.27h-.27v.27Zm.27.26v-.26h-.27v.26h.27Zm-.27-8.39v-.26h-.26v.26h.26Zm0,.27v-.27h-.26v.27h.26Zm-.26.26h.26v-.26h-.26v.26Zm0,1.31h.26v-.26h-.26v.26Zm0,1.58h.26v-.26h-.26v.26Zm0,4.46h.26v-.26h-.26v.26Zm0,.27h.26v-.27h-.26v.27Zm0-7.87v-.27h-.26v.27h.26Zm0,.26v-.26h-.26v.26h.26Zm-.26,1.31h.26v-.26h-.26v.26Zm0,1.58h.26v-.26h-.26v.26Zm0,4.46h.26v-.26h-.26v.26Zm.26.27v-.27h-.26v.27h.26Zm-.26-7.87v-.27h-.27v.27h.27Zm-.27.26h.27v-.26h-.27v.26Zm0,1.31h.27v-.26h-.27v.26Zm0,1.84h.27v-.26h-.27v.26Zm0,3.68h.27v-.27h-.27v.27Zm0,.26h.27v-.26h-.27v.26Zm.27.26v-.26h-.27v.26h.27Zm-.27-7.34v-.26h-.26v.26h.26Zm0,.27v-.27h-.26v.27h.26Zm-.26.26h.26v-.26h-.26v.26Zm0,.27h.26v-.27h-.26v.27Zm0,.26h.26v-.26h-.26v.26Zm0,.26h.26v-.26h-.26v.26Zm0,.27h.26v-.27h-.26v.27Zm0,.26h.26v-.26h-.26v.26Zm0,1.31h.26v-.26h-.26v.26Zm0,3.41h.26v-.26h-.26v.26Zm0,.27h.26v-.27h-.26v.27Zm.26.26v-.26h-.26v.26h.26Zm-.26-6.82v-.27h-.27v.27h.27Zm0,.26v-.26h-.27v.26h.27Zm-.27.27h.27v-.27h-.27v.27Zm0,1.31h.27v-.27h-.27v.27Zm0,1.04h.27v-.26h-.27v.26Zm0,3.15h.27v-.27h-.27v.27Zm0,.26h.27v-.26h-.27v.26Zm.27.27v-.27h-.27v.27h.27Zm-.27-6.3v-.26h-.26v.26h.26Zm0,.27v-.27h-.26v.27h.26Zm0,.26v-.26h-.26v.26h.26Zm-.26.26h.26v-.26h-.26v.26Zm0,.27h.26v-.27h-.26v.27Zm0,1.57h.26v-.26h-.26v.26Zm0,2.63h.26v-.27h-.26v.27Zm0,.26h.26v-.26h-.26v.26Zm0,.27h.26v-.27h-.26v.27Zm.26.26v-.26h-.26v.26h.26Zm-.53-5.77v.26h.27v-.26h-.27Zm0,.26v.26h.27v-.26h-.27Zm0,.26v.27h.27v-.27h-.27Zm0,.27v.26h.27v-.26h-.27Zm0,.26v.27h.27v-.27h-.27Zm0,.27v.26h.27v-.26h-.27Zm0,.78v.26h.27v-.26h-.27Zm0,2.1v.26h.27v-.26h-.27Zm0,.26v.26h.27v-.26h-.27Zm0,.26v.27h.27v-.27h-.27Zm0,.27v.26h.27v-.26h-.27Zm0,.26v.27h.27v-.27h-.27Zm0-4.46v-.27h-.26v.27h.26Zm0,.26v-.26h-.26v.26h.26Zm0,.27v-.27h-.26v.27h.26Zm0,.26v-.26h-.26v.26h.26Zm-.26.27h.26v-.27h-.26v.27Zm0,.26h.26v-.26h-.26v.26Zm0,.26h.26v-.26h-.26v.26Zm0,.27h.26v-.27h-.26v.27Zm0,.26h.26v-.26h-.26v.26Zm0,.27h.26v-.27h-.26v.27Zm0,.26h.26v-.26h-.26v.26Zm0,.27h.26v-.27h-.26v.27Zm0,.26h.26v-.26h-.26v.26Zm0,.27h.26v-.27h-.26v.27Zm0,.26h.26v-.26h-.26v.26Zm.26.26v-.26h-.26v.26h.26Zm0,.27v-.27h-.26v.27h.26Zm-.26-3.41v-.26h-.26v.26h.26Zm0,.27v-.27h-.26v.27h.26Zm0,.26v-.26h-.26v.26h.26Zm0,.26v-.26h-.26v.26h.26Zm0,.27v-.27h-.26v.27h.26Zm0,.26v-.26h-.26v.26h.26Zm0,.27v-.27h-.26v.27h.26Zm0,.26v-.26h-.26v.26h.26Zm0,.27v-.27h-.26v.27h.26Zm0,.26v-.26h-.26v.26h.26Zm0,.27v-.27h-.26v.27h.26Zm0,.26v-.26h-.26v.26h.26Z" fill="#231f20"/></svg>