<?xml version="1.0" encoding="UTF-8"?><svg id="Layer_1" xmlns="http://www.w3.org/2000/svg" viewBox="0 0 16 16"><circle cx="8" cy="8" r="7.34" fill="#fff" stroke="#231f20" stroke-miterlimit="10"/><path d="m11.38,10.88v.13h-.13v-.13h.13Zm-.13.13v.13h.13v-.13h-.13Zm0,.13v.13h.13v-.13h-.13Zm0,.13v.13h.13v-.13h-.13Zm0,.13v.13h.13v-.13h-.13Zm0,.13v.13h.13v-.13h-.13Zm0,.13v.13h.13v-.13h-.13Zm0,.13v.13h.13v-.13h-.13Zm0,.26h.13v-.13h-.13v.13Zm.13,1.4v-.13h-.13v.13h.13Zm0,.13v-.13h-.13v.13h.13Zm0,.13v-.13h-.13v.13h.13Zm0,.13v-.13h-.13v.13h.13Zm-.13-3.18v-.13h-.13v.13h.13Zm0,.13v-.13h-.13v.13h.13Zm0,.13v-.13h-.13v.13h.13Zm-.13.13h.13v-.13h-.13v.13Zm0,.13h.13v-.13h-.13v.13Zm0,.13h.13v-.13h-.13v.13Zm0,.13h.13v-.13h-.13v.13Zm0,.13h.13v-.13h-.13v.13Zm0,.13h.13v-.13h-.13v.13Zm0,.13h.13v-.13h-.13v.13Zm0,.13h.13v-.13h-.13v.13Zm0,.13h.13v-.13h-.13v.13Zm0,.13h.13v-.13h-.13v.13Zm0,.13h.13v-.13h-.13v.13Zm0,.13h.13v-.13h-.13v.13Zm.13.89v-.13h-.13v.13h.13Zm0,.13v-.13h-.13v.13h.13Zm-.13.13h.13v-.13h-.13v.13Zm0,.13h.13v-.13h-.13v.13Zm0,.13h.13v-.13h-.13v.13Zm0-3.44v-.13h-.13v.13h.13Zm0,.13v-.13h-.13v.13h.13Zm0,.13v-.13h-.13v.13h.13Zm0,.13v-.13h-.13v.13h.13Zm-.13.26h.13v-.13h-.13v.13Zm0,.13h.13v-.13h-.13v.13Zm0,.13h.13v-.13h-.13v.13Zm0,.13h.13v-.13h-.13v.13Zm0,.13h.13v-.13h-.13v.13Zm0,.64h.13v-.13h-.13v.13Zm0,.13h.13v-.13h-.13v.13Zm0,.13h.13v-.13h-.13v.13Zm0,.13h.13v-.13h-.13v.13Zm0,.13h.13v-.13h-.13v.13Zm.13.51v-.13h-.13v.13h.13Zm-.13.13h.13v-.13h-.13v.13Zm0,.13h.13v-.13h-.13v.13Zm0,.13h.13v-.13h-.13v.13Zm0,.13h.13v-.13h-.13v.13Zm0,.13h.13v-.13h-.13v.13Zm0,.13h.13v-.13h-.13v.13Zm-.13-3.94v.13h.13v-.13h-.13Zm0,.13v.13h.13v-.13h-.13Zm0,.13v.13h.13v-.13h-.13Zm0,.13v.13h.13v-.13h-.13Zm0,.13v.13h.13v-.13h-.13Zm0,.26v.13h.13v-.13h-.13Zm0,.89h.13v-.13h-.13v.13Zm0,.13h.13v-.13h-.13v.13Zm0,.64h.13v-.13h-.13v.13Zm0,.13h.13v-.13h-.13v.13Zm0,.13h.13v-.13h-.13v.13Zm0,.13h.13v-.13h-.13v.13Zm0,.38h.13v-.13h-.13v.13Zm0,.13h.13v-.13h-.13v.13Zm0,.13h.13v-.13h-.13v.13Zm0,.13h.13v-.13h-.13v.13Zm0,.13h.13v-.13h-.13v.13Zm0,.13h.13v-.13h-.13v.13Zm0,.13h.13v-.13h-.13v.13Zm0-3.94v-.13h-.13v.13h.13Zm0,.13v-.13h-.13v.13h.13Zm0,.13v-.13h-.13v.13h.13Zm0,.13v-.13h-.13v.13h.13Zm-.13.51h.13v-.13h-.13v.13Zm0,1.02h.13v-.13h-.13v.13Zm0,.77h.13v-.13h-.13v.13Zm0,.13h.13v-.13h-.13v.13Zm0,.13h.13v-.13h-.13v.13Zm0,.25h.13v-.13h-.13v.13Zm0,.13h.13v-.13h-.13v.13Zm0,.13h.13v-.13h-.13v.13Zm0,.13h.13v-.13h-.13v.13Zm0,.13h.13v-.13h-.13v.13Zm0,.13h.13v-.13h-.13v.13Zm0,.13h.13v-.13h-.13v.13Zm0-4.07v-.13h-.13v.13h.13Zm0,.13v-.13h-.13v.13h.13Zm0,.13v-.13h-.13v.13h.13Zm0,.64v-.13h-.13v.13h.13Zm-.13,1.15h.13v-.13h-.13v.13Zm0,.89h.13v-.13h-.13v.13Zm0,.13h.13v-.13h-.13v.13Zm0,.13h.13v-.13h-.13v.13Zm0,.13h.13v-.13h-.13v.13Zm0,.13h.13v-.13h-.13v.13Zm0,.13h.13v-.13h-.13v.13Zm0,.13h.13v-.13h-.13v.13Zm0,.13h.13v-.13h-.13v.13Zm0,.13h.13v-.13h-.13v.13Zm0,.13h.13v-.13h-.13v.13Zm0-4.2v-.13h-.13v.13h.13Zm0,.13v-.13h-.13v.13h.13Zm0,.13v-.13h-.13v.13h.13Zm0,.38v-.13h-.13v.13h.13Zm0,.13v-.13h-.13v.13h.13Zm0,.13v-.13h-.13v.13h.13Zm0,.26v-.13h-.13v.13h.13Zm-.13,1.15h.13v-.13h-.13v.13Zm0,.89h.13v-.13h-.13v.13Zm0,.13h.13v-.13h-.13v.13Zm0,.13h.13v-.13h-.13v.13Zm0,.13h.13v-.13h-.13v.13Zm0,.13h.13v-.13h-.13v.13Zm0,.13h.13v-.13h-.13v.13Zm0,.13h.13v-.13h-.13v.13Zm0,.13h.13v-.13h-.13v.13Zm0,.13h.13v-.13h-.13v.13Zm-.13-4.45v.13h.13v-.13h-.13Zm0,.13v.13h.13v-.13h-.13Zm0,.51v.13h.13v-.13h-.13Zm0,.64v.13h.13v-.13h-.13Zm0,1.15v.13h.13v-.13h-.13Zm0,1.02v.13h.13v-.13h-.13Zm0,.13v.13h.13v-.13h-.13Zm0,.13v.13h.13v-.13h-.13Zm0,.13v.13h.13v-.13h-.13Zm0,.13v.13h.13v-.13h-.13Zm0,.13v.13h.13v-.13h-.13Zm0,.13v.13h.13v-.13h-.13Zm0,.13v.13h.13v-.13h-.13Zm0-4.33v-.13h-.13v.13h.13Zm0,.13v-.13h-.13v.13h.13Zm-.13.13h.13v-.13h-.13v.13Zm0,2.29h.13v-.13h-.13v.13Zm0,1.14h.13v-.13h-.13v.13Zm0,.13h.13v-.13h-.13v.13Zm0,.13h.13v-.13h-.13v.13Zm0,.13h.13v-.13h-.13v.13Zm0,.13h.13v-.13h-.13v.13Zm0,.13h.13v-.13h-.13v.13Zm0,.13h.13v-.13h-.13v.13Zm0-4.45v-.13h-.13v.13h.13Zm0,.13v-.13h-.13v.13h.13Zm-.13,2.55h.13v-.13h-.13v.13Zm0,1.02h.13v-.13h-.13v.13Zm0,.13h.13v-.13h-.13v.13Zm0,.13h.13v-.13h-.13v.13Zm0,.13h.13v-.13h-.13v.13Zm0,.13h.13v-.13h-.13v.13Zm0,.13h.13v-.13h-.13v.13Zm.13.13v-.13h-.13v.13h.13Zm-.13-4.58v-.13h-.13v.13h.13Zm0,.13v-.13h-.13v.13h.13Zm-.13,1.02h.13v-.13h-.13v.13Zm0,2.8h.13v-.13h-.13v.13Zm0,.13h.13v-.13h-.13v.13Zm0,.13h.13v-.13h-.13v.13Zm0,.13h.13v-.13h-.13v.13Zm0,.13h.13v-.13h-.13v.13Zm0-4.46v-.13h-.13v.13h.13Zm0,.13v-.13h-.13v.13h.13Zm-.13,1.15h.13v-.13h-.13v.13Zm0,2.67h.13v-.13h-.13v.13Zm0,.13h.13v-.13h-.13v.13Zm0,.13h.13v-.13h-.13v.13Zm0,.13h.13v-.13h-.13v.13Zm0,.13h.13v-.13h-.13v.13Zm0-4.46v-.13h-.13v.13h.13Zm0,.13v-.13h-.13v.13h.13Zm-.13,1.27h.13v-.13h-.13v.13Zm0,2.55h.13v-.13h-.13v.13Zm0,.13h.13v-.13h-.13v.13Zm0,.13h.13v-.13h-.13v.13Zm0,.13h.13v-.13h-.13v.13Zm.13.13v-.13h-.13v.13h.13Zm-.13-4.46v-.13h-.13v.13h.13Zm0,.13v-.13h-.13v.13h.13Zm-.13,1.27h.13v-.13h-.13v.13Zm0,2.55h.13v-.13h-.13v.13Zm0,.13h.13v-.13h-.13v.13Zm0,.13h.13v-.13h-.13v.13Zm.13.13v-.13h-.13v.13h.13Zm-.13-4.33v-.13h-.13v.13h.13Zm0,.13v-.13h-.13v.13h.13Zm-.13,1.02h.13v-.13h-.13v.13Zm0,.26h.13v-.13h-.13v.13Zm0,2.55h.13v-.13h-.13v.13Zm0,.13h.13v-.13h-.13v.13Zm.13.13v-.13h-.13v.13h.13Zm-.13-4.2v-.13h-.13v.13h.13Zm-.13.13h.13v-.13h-.13v.13Zm0,.89h.13v-.13h-.13v.13Zm0,.51h.13v-.13h-.13v.13Zm0,2.29h.13v-.13h-.13v.13Zm0,.13h.13v-.13h-.13v.13Zm.13.13v-.13h-.13v.13h.13Zm-.13-4.07v-.13h-.13v.13h.13Zm0,.13v-.13h-.13v.13h.13Zm-.13.13h.13v-.13h-.13v.13Zm0,.64h.13v-.13h-.13v.13Zm0,.77h.13v-.13h-.13v.13Zm0,2.16h.13v-.13h-.13v.13Zm0,.13h.13v-.13h-.13v.13Zm0-3.82v-.13h-.13v.13h.13Zm0,.13v-.13h-.13v.13h.13Zm-.13.64h.13v-.13h-.13v.13Zm0,.77h.13v-.13h-.13v.13Zm0,2.16h.13v-.13h-.13v.13Zm.13.13v-.13h-.13v.13h.13Zm-.13-3.82v-.13h-.13v.13h.13Zm-.13.13h.13v-.13h-.13v.13Zm0,.64h.13v-.13h-.13v.13Zm0,.89h.13v-.13h-.13v.13Zm0,1.79h.13v-.13h-.13v.13Zm0,.13h.13v-.13h-.13v.13Zm.13.13v-.13h-.13v.13h.13Zm-.13-3.56v-.13h-.13v.13h.13Zm0,.13v-.13h-.13v.13h.13Zm-.13.13h.13v-.13h-.13v.13Zm0,.13h.13v-.13h-.13v.13Zm0,.13h.13v-.13h-.13v.13Zm0,.13h.13v-.13h-.13v.13Zm0,.13h.13v-.13h-.13v.13Zm0,.13h.13v-.13h-.13v.13Zm0,.64h.13v-.13h-.13v.13Zm0,1.66h.13v-.13h-.13v.13Zm0,.13h.13v-.13h-.13v.13Zm.13.13v-.13h-.13v.13h.13Zm-.13-3.31v-.13h-.13v.13h.13Zm0,.13v-.13h-.13v.13h.13Zm-.13.13h.13v-.13h-.13v.13Zm0,.64h.13v-.13h-.13v.13Zm0,.51h.13v-.13h-.13v.13Zm0,1.53h.13v-.13h-.13v.13Zm0,.13h.13v-.13h-.13v.13Zm.13.13v-.13h-.13v.13h.13Zm-.13-3.06v-.13h-.13v.13h.13Zm0,.13v-.13h-.13v.13h.13Zm0,.13v-.13h-.13v.13h.13Zm-.13.13h.13v-.13h-.13v.13Zm0,.13h.13v-.13h-.13v.13Zm0,.76h.13v-.13h-.13v.13Zm0,1.28h.13v-.13h-.13v.13Zm0,.13h.13v-.13h-.13v.13Zm0,.13h.13v-.13h-.13v.13Zm.13.13v-.13h-.13v.13h.13Zm-.26-2.8v.13h.13v-.13h-.13Zm0,.13v.13h.13v-.13h-.13Zm0,.13v.13h.13v-.13h-.13Zm0,.13v.13h.13v-.13h-.13Zm0,.13v.13h.13v-.13h-.13Zm0,.13v.13h.13v-.13h-.13Zm0,.38v.13h.13v-.13h-.13Zm0,1.02v.13h.13v-.13h-.13Zm0,.13v.13h.13v-.13h-.13Zm0,.13v.13h.13v-.13h-.13Zm0,.13v.13h.13v-.13h-.13Zm0,.13v.13h.13v-.13h-.13Zm0-2.16v-.13h-.13v.13h.13Zm0,.13v-.13h-.13v.13h.13Zm0,.13v-.13h-.13v.13h.13Zm0,.13v-.13h-.13v.13h.13Zm-.13.13h.13v-.13h-.13v.13Zm0,.13h.13v-.13h-.13v.13Zm0,.13h.13v-.13h-.13v.13Zm0,.13h.13v-.13h-.13v.13Zm0,.13h.13v-.13h-.13v.13Zm0,.13h.13v-.13h-.13v.13Zm0,.13h.13v-.13h-.13v.13Zm0,.13h.13v-.13h-.13v.13Zm0,.13h.13v-.13h-.13v.13Zm0,.13h.13v-.13h-.13v.13Zm0,.13h.13v-.13h-.13v.13Zm.13.13v-.13h-.13v.13h.13Zm0,.13v-.13h-.13v.13h.13Zm-.13-1.66v-.13h-.13v.13h.13Zm0,.13v-.13h-.13v.13h.13Zm0,.13v-.13h-.13v.13h.13Zm0,.13v-.13h-.13v.13h.13Zm0,.13v-.13h-.13v.13h.13Zm0,.13v-.13h-.13v.13h.13Zm0,.13v-.13h-.13v.13h.13Zm0,.13v-.13h-.13v.13h.13Zm0,.13v-.13h-.13v.13h.13Zm0,.13v-.13h-.13v.13h.13Zm0,.13v-.13h-.13v.13h.13Zm0,.13v-.13h-.13v.13h.13Z" fill="#231f20"/><path d="m7.8,3.72v.13h-.13v-.13h.13Zm-.13.13v.13h.13v-.13h-.13Zm0,.13v.13h.13v-.13h-.13Zm0,.13v.13h.13v-.13h-.13Zm0,.13v.13h.13v-.13h-.13Zm0,.13v.13h.13v-.13h-.13Zm0,.13v.13h.13v-.13h-.13Zm0,.13v.13h.13v-.13h-.13Zm0,.26h.13v-.13h-.13v.13Zm.13,1.4v-.13h-.13v.13h.13Zm0,.13v-.13h-.13v.13h.13Zm0,.13v-.13h-.13v.13h.13Zm0,.13v-.13h-.13v.13h.13Zm-.13-3.18v-.13h-.13v.13h.13Zm0,.13v-.13h-.13v.13h.13Zm0,.13v-.13h-.13v.13h.13Zm-.13.13h.13v-.13h-.13v.13Zm0,.13h.13v-.13h-.13v.13Zm0,.13h.13v-.13h-.13v.13Zm0,.13h.13v-.13h-.13v.13Zm0,.13h.13v-.13h-.13v.13Zm0,.13h.13v-.13h-.13v.13Zm0,.13h.13v-.13h-.13v.13Zm0,.13h.13v-.13h-.13v.13Zm0,.13h.13v-.13h-.13v.13Zm0,.13h.13v-.13h-.13v.13Zm0,.13h.13v-.13h-.13v.13Zm0,.13h.13v-.13h-.13v.13Zm.13.89v-.13h-.13v.13h.13Zm0,.13v-.13h-.13v.13h.13Zm-.13.13h.13v-.13h-.13v.13Zm0,.13h.13v-.13h-.13v.13Zm0,.13h.13v-.13h-.13v.13Zm0-3.44v-.13h-.13v.13h.13Zm0,.13v-.13h-.13v.13h.13Zm0,.13v-.13h-.13v.13h.13Zm0,.13v-.13h-.13v.13h.13Zm-.13.26h.13v-.13h-.13v.13Zm0,.13h.13v-.13h-.13v.13Zm0,.13h.13v-.13h-.13v.13Zm0,.13h.13v-.13h-.13v.13Zm0,.13h.13v-.13h-.13v.13Zm0,.64h.13v-.13h-.13v.13Zm0,.13h.13v-.13h-.13v.13Zm0,.13h.13v-.13h-.13v.13Zm0,.13h.13v-.13h-.13v.13Zm0,.13h.13v-.13h-.13v.13Zm.13.51v-.13h-.13v.13h.13Zm-.13.13h.13v-.13h-.13v.13Zm0,.13h.13v-.13h-.13v.13Zm0,.13h.13v-.13h-.13v.13Zm0,.13h.13v-.13h-.13v.13Zm0,.13h.13v-.13h-.13v.13Zm0,.13h.13v-.13h-.13v.13Zm-.13-3.94v.13h.13v-.13h-.13Zm0,.13v.13h.13v-.13h-.13Zm0,.13v.13h.13v-.13h-.13Zm0,.13v.13h.13v-.13h-.13Zm0,.13v.13h.13v-.13h-.13Zm0,.26v.13h.13v-.13h-.13Zm0,.89h.13v-.13h-.13v.13Zm0,.13h.13v-.13h-.13v.13Zm0,.64h.13v-.13h-.13v.13Zm0,.13h.13v-.13h-.13v.13Zm0,.13h.13v-.13h-.13v.13Zm0,.13h.13v-.13h-.13v.13Zm0,.38h.13v-.13h-.13v.13Zm0,.13h.13v-.13h-.13v.13Zm0,.13h.13v-.13h-.13v.13Zm0,.13h.13v-.13h-.13v.13Zm0,.13h.13v-.13h-.13v.13Zm0,.13h.13v-.13h-.13v.13Zm0,.13h.13v-.13h-.13v.13Zm0-3.94v-.13h-.13v.13h.13Zm0,.13v-.13h-.13v.13h.13Zm0,.13v-.13h-.13v.13h.13Zm0,.13v-.13h-.13v.13h.13Zm-.13.51h.13v-.13h-.13v.13Zm0,1.02h.13v-.13h-.13v.13Zm0,.77h.13v-.13h-.13v.13Zm0,.13h.13v-.13h-.13v.13Zm0,.13h.13v-.13h-.13v.13Zm0,.25h.13v-.13h-.13v.13Zm0,.13h.13v-.13h-.13v.13Zm0,.13h.13v-.13h-.13v.13Zm0,.13h.13v-.13h-.13v.13Zm0,.13h.13v-.13h-.13v.13Zm0,.13h.13v-.13h-.13v.13Zm0,.13h.13v-.13h-.13v.13Zm0-4.07v-.13h-.13v.13h.13Zm0,.13v-.13h-.13v.13h.13Zm0,.13v-.13h-.13v.13h.13Zm0,.64v-.13h-.13v.13h.13Zm-.13,1.15h.13v-.13h-.13v.13Zm0,.89h.13v-.13h-.13v.13Zm0,.13h.13v-.13h-.13v.13Zm0,.13h.13v-.13h-.13v.13Zm0,.13h.13v-.13h-.13v.13Zm0,.13h.13v-.13h-.13v.13Zm0,.13h.13v-.13h-.13v.13Zm0,.13h.13v-.13h-.13v.13Zm0,.13h.13v-.13h-.13v.13Zm0,.13h.13v-.13h-.13v.13Zm0,.13h.13v-.13h-.13v.13Zm0-4.2v-.13h-.13v.13h.13Zm0,.13v-.13h-.13v.13h.13Zm0,.13v-.13h-.13v.13h.13Zm0,.38v-.13h-.13v.13h.13Zm0,.13v-.13h-.13v.13h.13Zm0,.13v-.13h-.13v.13h.13Zm0,.26v-.13h-.13v.13h.13Zm-.13,1.15h.13v-.13h-.13v.13Zm0,.89h.13v-.13h-.13v.13Zm0,.13h.13v-.13h-.13v.13Zm0,.13h.13v-.13h-.13v.13Zm0,.13h.13v-.13h-.13v.13Zm0,.13h.13v-.13h-.13v.13Zm0,.13h.13v-.13h-.13v.13Zm0,.13h.13v-.13h-.13v.13Zm0,.13h.13v-.13h-.13v.13Zm0,.13h.13v-.13h-.13v.13Zm-.13-4.45v.13h.13v-.13h-.13Zm0,.13v.13h.13v-.13h-.13Zm0,.51v.13h.13v-.13h-.13Zm0,.64v.13h.13v-.13h-.13Zm0,1.15v.13h.13v-.13h-.13Zm0,1.02v.13h.13v-.13h-.13Zm0,.13v.13h.13v-.13h-.13Zm0,.13v.13h.13v-.13h-.13Zm0,.13v.13h.13v-.13h-.13Zm0,.13v.13h.13v-.13h-.13Zm0,.13v.13h.13v-.13h-.13Zm0,.13v.13h.13v-.13h-.13Zm0,.13v.13h.13v-.13h-.13Zm0-4.33v-.13h-.13v.13h.13Zm0,.13v-.13h-.13v.13h.13Zm-.13.13h.13v-.13h-.13v.13Zm0,2.29h.13v-.13h-.13v.13Zm0,1.14h.13v-.13h-.13v.13Zm0,.13h.13v-.13h-.13v.13Zm0,.13h.13v-.13h-.13v.13Zm0,.13h.13v-.13h-.13v.13Zm0,.13h.13v-.13h-.13v.13Zm0,.13h.13v-.13h-.13v.13Zm0,.13h.13v-.13h-.13v.13Zm0-4.45v-.13h-.13v.13h.13Zm0,.13v-.13h-.13v.13h.13Zm-.13,2.55h.13v-.13h-.13v.13Zm0,1.02h.13v-.13h-.13v.13Zm0,.13h.13v-.13h-.13v.13Zm0,.13h.13v-.13h-.13v.13Zm0,.13h.13v-.13h-.13v.13Zm0,.13h.13v-.13h-.13v.13Zm0,.13h.13v-.13h-.13v.13Zm.13.13v-.13h-.13v.13h.13Zm-.13-4.58v-.13h-.13v.13h.13Zm0,.13v-.13h-.13v.13h.13Zm-.13,1.02h.13v-.13h-.13v.13Zm0,2.8h.13v-.13h-.13v.13Zm0,.13h.13v-.13h-.13v.13Zm0,.13h.13v-.13h-.13v.13Zm0,.13h.13v-.13h-.13v.13Zm0,.13h.13v-.13h-.13v.13Zm0-4.46v-.13h-.13v.13h.13Zm0,.13v-.13h-.13v.13h.13Zm-.13,1.15h.13v-.13h-.13v.13Zm0,2.67h.13v-.13h-.13v.13Zm0,.13h.13v-.13h-.13v.13Zm0,.13h.13v-.13h-.13v.13Zm0,.13h.13v-.13h-.13v.13Zm0,.13h.13v-.13h-.13v.13Zm0-4.46v-.13h-.13v.13h.13Zm0,.13v-.13h-.13v.13h.13Zm-.13,1.27h.13v-.13h-.13v.13Zm0,2.55h.13v-.13h-.13v.13Zm0,.13h.13v-.13h-.13v.13Zm0,.13h.13v-.13h-.13v.13Zm0,.13h.13v-.13h-.13v.13Zm.13.13v-.13h-.13v.13h.13Zm-.13-4.46v-.13h-.13v.13h.13Zm0,.13v-.13h-.13v.13h.13Zm-.13,1.27h.13v-.13h-.13v.13Zm0,2.55h.13v-.13h-.13v.13Zm0,.13h.13v-.13h-.13v.13Zm0,.13h.13v-.13h-.13v.13Zm.13.13v-.13h-.13v.13h.13Zm-.13-4.33v-.13h-.13v.13h.13Zm0,.13v-.13h-.13v.13h.13Zm-.13,1.02h.13v-.13h-.13v.13Zm0,.26h.13v-.13h-.13v.13Zm0,2.55h.13v-.13h-.13v.13Zm0,.13h.13v-.13h-.13v.13Zm.13.13v-.13h-.13v.13h.13Zm-.13-4.2v-.13h-.13v.13h.13Zm-.13.13h.13v-.13h-.13v.13Zm0,.89h.13v-.13h-.13v.13Zm0,.51h.13v-.13h-.13v.13Zm0,2.29h.13v-.13h-.13v.13Zm0,.13h.13v-.13h-.13v.13Zm.13.13v-.13h-.13v.13h.13Zm-.13-4.07v-.13h-.13v.13h.13Zm0,.13v-.13h-.13v.13h.13Zm-.13.13h.13v-.13h-.13v.13Zm0,.64h.13v-.13h-.13v.13Zm0,.77h.13v-.13h-.13v.13Zm0,2.16h.13v-.13h-.13v.13Zm0,.13h.13v-.13h-.13v.13Zm0-3.82v-.13h-.13v.13h.13Zm0,.13v-.13h-.13v.13h.13Zm-.13.64h.13v-.13h-.13v.13Zm0,.77h.13v-.13h-.13v.13Zm0,2.16h.13v-.13h-.13v.13Zm.13.13v-.13h-.13v.13h.13Zm-.13-3.82v-.13h-.13v.13h.13Zm-.13.13h.13v-.13h-.13v.13Zm0,.64h.13v-.13h-.13v.13Zm0,.89h.13v-.13h-.13v.13Zm0,1.79h.13v-.13h-.13v.13Zm0,.13h.13v-.13h-.13v.13Zm.13.13v-.13h-.13v.13h.13Zm-.13-3.56v-.13h-.13v.13h.13Zm0,.13v-.13h-.13v.13h.13Zm-.13.13h.13v-.13h-.13v.13Zm0,.13h.13v-.13h-.13v.13Zm0,.13h.13v-.13h-.13v.13Zm0,.13h.13v-.13h-.13v.13Zm0,.13h.13v-.13h-.13v.13Zm0,.13h.13v-.13h-.13v.13Zm0,.64h.13v-.13h-.13v.13Zm0,1.66h.13v-.13h-.13v.13Zm0,.13h.13v-.13h-.13v.13Zm.13.13v-.13h-.13v.13h.13Zm-.13-3.31v-.13h-.13v.13h.13Zm0,.13v-.13h-.13v.13h.13Zm-.13.13h.13v-.13h-.13v.13Zm0,.64h.13v-.13h-.13v.13Zm0,.51h.13v-.13h-.13v.13Zm0,1.53h.13v-.13h-.13v.13Zm0,.13h.13v-.13h-.13v.13Zm.13.13v-.13h-.13v.13h.13Zm-.13-3.06v-.13h-.13v.13h.13Zm0,.13v-.13h-.13v.13h.13Zm0,.13v-.13h-.13v.13h.13Zm-.13.13h.13v-.13h-.13v.13Zm0,.13h.13v-.13h-.13v.13Zm0,.76h.13v-.13h-.13v.13Zm0,1.28h.13v-.13h-.13v.13Zm0,.13h.13v-.13h-.13v.13Zm0,.13h.13v-.13h-.13v.13Zm.13.13v-.13h-.13v.13h.13Zm-.26-2.8v.13h.13v-.13h-.13Zm0,.13v.13h.13v-.13h-.13Zm0,.13v.13h.13v-.13h-.13Zm0,.13v.13h.13v-.13h-.13Zm0,.13v.13h.13v-.13h-.13Zm0,.13v.13h.13v-.13h-.13Zm0,.38v.13h.13v-.13h-.13Zm0,1.02v.13h.13v-.13h-.13Zm0,.13v.13h.13v-.13h-.13Zm0,.13v.13h.13v-.13h-.13Zm0,.13v.13h.13v-.13h-.13Zm0,.13v.13h.13v-.13h-.13Zm0-2.16v-.13h-.13v.13h.13Zm0,.13v-.13h-.13v.13h.13Zm0,.13v-.13h-.13v.13h.13Zm0,.13v-.13h-.13v.13h.13Zm-.13.13h.13v-.13h-.13v.13Zm0,.13h.13v-.13h-.13v.13Zm0,.13h.13v-.13h-.13v.13Zm0,.13h.13v-.13h-.13v.13Zm0,.13h.13v-.13h-.13v.13Zm0,.13h.13v-.13h-.13v.13Zm0,.13h.13v-.13h-.13v.13Zm0,.13h.13v-.13h-.13v.13Zm0,.13h.13v-.13h-.13v.13Zm0,.13h.13v-.13h-.13v.13Zm0,.13h.13v-.13h-.13v.13Zm.13.13v-.13h-.13v.13h.13Zm0,.13v-.13h-.13v.13h.13Zm-.13-1.66v-.13h-.13v.13h.13Zm0,.13v-.13h-.13v.13h.13Zm0,.13v-.13h-.13v.13h.13Zm0,.13v-.13h-.13v.13h.13Zm0,.13v-.13h-.13v.13h.13Zm0,.13v-.13h-.13v.13h.13Zm0,.13v-.13h-.13v.13h.13Zm0,.13v-.13h-.13v.13h.13Zm0,.13v-.13h-.13v.13h.13Zm0,.13v-.13h-.13v.13h.13Zm0,.13v-.13h-.13v.13h.13Zm0,.13v-.13h-.13v.13h.13Z" fill="#231f20"/><path d="m12.27,6.41v.13h-.13v-.13h.13Zm-.13.13v.13h.13v-.13h-.13Zm0,.13v.13h.13v-.13h-.13Zm0,.13v.13h.13v-.13h-.13Zm0,.13v.13h.13v-.13h-.13Zm0,.13v.13h.13v-.13h-.13Zm0,.13v.13h.13v-.13h-.13Zm0,.13v.13h.13v-.13h-.13Zm0,.26h.13v-.13h-.13v.13Zm.13,1.4v-.13h-.13v.13h.13Zm0,.13v-.13h-.13v.13h.13Zm0,.13v-.13h-.13v.13h.13Zm0,.13v-.13h-.13v.13h.13Zm-.13-3.18v-.13h-.13v.13h.13Zm0,.13v-.13h-.13v.13h.13Zm0,.13v-.13h-.13v.13h.13Zm-.13.13h.13v-.13h-.13v.13Zm0,.13h.13v-.13h-.13v.13Zm0,.13h.13v-.13h-.13v.13Zm0,.13h.13v-.13h-.13v.13Zm0,.13h.13v-.13h-.13v.13Zm0,.13h.13v-.13h-.13v.13Zm0,.13h.13v-.13h-.13v.13Zm0,.13h.13v-.13h-.13v.13Zm0,.13h.13v-.13h-.13v.13Zm0,.13h.13v-.13h-.13v.13Zm0,.13h.13v-.13h-.13v.13Zm0,.13h.13v-.13h-.13v.13Zm.13.89v-.13h-.13v.13h.13Zm0,.13v-.13h-.13v.13h.13Zm-.13.13h.13v-.13h-.13v.13Zm0,.13h.13v-.13h-.13v.13Zm0,.13h.13v-.13h-.13v.13Zm0-3.44v-.13h-.13v.13h.13Zm0,.13v-.13h-.13v.13h.13Zm0,.13v-.13h-.13v.13h.13Zm0,.13v-.13h-.13v.13h.13Zm-.13.26h.13v-.13h-.13v.13Zm0,.13h.13v-.13h-.13v.13Zm0,.13h.13v-.13h-.13v.13Zm0,.13h.13v-.13h-.13v.13Zm0,.13h.13v-.13h-.13v.13Zm0,.64h.13v-.13h-.13v.13Zm0,.13h.13v-.13h-.13v.13Zm0,.13h.13v-.13h-.13v.13Zm0,.13h.13v-.13h-.13v.13Zm0,.13h.13v-.13h-.13v.13Zm.13.51v-.13h-.13v.13h.13Zm-.13.13h.13v-.13h-.13v.13Zm0,.13h.13v-.13h-.13v.13Zm0,.13h.13v-.13h-.13v.13Zm0,.13h.13v-.13h-.13v.13Zm0,.13h.13v-.13h-.13v.13Zm0,.13h.13v-.13h-.13v.13Zm-.13-3.94v.13h.13v-.13h-.13Zm0,.13v.13h.13v-.13h-.13Zm0,.13v.13h.13v-.13h-.13Zm0,.13v.13h.13v-.13h-.13Zm0,.13v.13h.13v-.13h-.13Zm0,.26v.13h.13v-.13h-.13Zm0,.89h.13v-.13h-.13v.13Zm0,.13h.13v-.13h-.13v.13Zm0,.64h.13v-.13h-.13v.13Zm0,.13h.13v-.13h-.13v.13Zm0,.13h.13v-.13h-.13v.13Zm0,.13h.13v-.13h-.13v.13Zm0,.38h.13v-.13h-.13v.13Zm0,.13h.13v-.13h-.13v.13Zm0,.13h.13v-.13h-.13v.13Zm0,.13h.13v-.13h-.13v.13Zm0,.13h.13v-.13h-.13v.13Zm0,.13h.13v-.13h-.13v.13Zm0,.13h.13v-.13h-.13v.13Zm0-3.94v-.13h-.13v.13h.13Zm0,.13v-.13h-.13v.13h.13Zm0,.13v-.13h-.13v.13h.13Zm0,.13v-.13h-.13v.13h.13Zm-.13.51h.13v-.13h-.13v.13Zm0,1.02h.13v-.13h-.13v.13Zm0,.77h.13v-.13h-.13v.13Zm0,.13h.13v-.13h-.13v.13Zm0,.13h.13v-.13h-.13v.13Zm0,.25h.13v-.13h-.13v.13Zm0,.13h.13v-.13h-.13v.13Zm0,.13h.13v-.13h-.13v.13Zm0,.13h.13v-.13h-.13v.13Zm0,.13h.13v-.13h-.13v.13Zm0,.13h.13v-.13h-.13v.13Zm0,.13h.13v-.13h-.13v.13Zm0-4.07v-.13h-.13v.13h.13Zm0,.13v-.13h-.13v.13h.13Zm0,.13v-.13h-.13v.13h.13Zm0,.64v-.13h-.13v.13h.13Zm-.13,1.15h.13v-.13h-.13v.13Zm0,.89h.13v-.13h-.13v.13Zm0,.13h.13v-.13h-.13v.13Zm0,.13h.13v-.13h-.13v.13Zm0,.13h.13v-.13h-.13v.13Zm0,.13h.13v-.13h-.13v.13Zm0,.13h.13v-.13h-.13v.13Zm0,.13h.13v-.13h-.13v.13Zm0,.13h.13v-.13h-.13v.13Zm0,.13h.13v-.13h-.13v.13Zm0,.13h.13v-.13h-.13v.13Zm0-4.2v-.13h-.13v.13h.13Zm0,.13v-.13h-.13v.13h.13Zm0,.13v-.13h-.13v.13h.13Zm0,.38v-.13h-.13v.13h.13Zm0,.13v-.13h-.13v.13h.13Zm0,.13v-.13h-.13v.13h.13Zm0,.26v-.13h-.13v.13h.13Zm-.13,1.15h.13v-.13h-.13v.13Zm0,.89h.13v-.13h-.13v.13Zm0,.13h.13v-.13h-.13v.13Zm0,.13h.13v-.13h-.13v.13Zm0,.13h.13v-.13h-.13v.13Zm0,.13h.13v-.13h-.13v.13Zm0,.13h.13v-.13h-.13v.13Zm0,.13h.13v-.13h-.13v.13Zm0,.13h.13v-.13h-.13v.13Zm0,.13h.13v-.13h-.13v.13Zm-.13-4.45v.13h.13v-.13h-.13Zm0,.13v.13h.13v-.13h-.13Zm0,.51v.13h.13v-.13h-.13Zm0,.64v.13h.13v-.13h-.13Zm0,1.15v.13h.13v-.13h-.13Zm0,1.02v.13h.13v-.13h-.13Zm0,.13v.13h.13v-.13h-.13Zm0,.13v.13h.13v-.13h-.13Zm0,.13v.13h.13v-.13h-.13Zm0,.13v.13h.13v-.13h-.13Zm0,.13v.13h.13v-.13h-.13Zm0,.13v.13h.13v-.13h-.13Zm0,.13v.13h.13v-.13h-.13Zm0-4.33v-.13h-.13v.13h.13Zm0,.13v-.13h-.13v.13h.13Zm-.13.13h.13v-.13h-.13v.13Zm0,2.29h.13v-.13h-.13v.13Zm0,1.14h.13v-.13h-.13v.13Zm0,.13h.13v-.13h-.13v.13Zm0,.13h.13v-.13h-.13v.13Zm0,.13h.13v-.13h-.13v.13Zm0,.13h.13v-.13h-.13v.13Zm0,.13h.13v-.13h-.13v.13Zm0,.13h.13v-.13h-.13v.13Zm0-4.45v-.13h-.13v.13h.13Zm0,.13v-.13h-.13v.13h.13Zm-.13,2.55h.13v-.13h-.13v.13Zm0,1.02h.13v-.13h-.13v.13Zm0,.13h.13v-.13h-.13v.13Zm0,.13h.13v-.13h-.13v.13Zm0,.13h.13v-.13h-.13v.13Zm0,.13h.13v-.13h-.13v.13Zm0,.13h.13v-.13h-.13v.13Zm.13.13v-.13h-.13v.13h.13Zm-.13-4.58v-.13h-.13v.13h.13Zm0,.13v-.13h-.13v.13h.13Zm-.13,1.02h.13v-.13h-.13v.13Zm0,2.8h.13v-.13h-.13v.13Zm0,.13h.13v-.13h-.13v.13Zm0,.13h.13v-.13h-.13v.13Zm0,.13h.13v-.13h-.13v.13Zm0,.13h.13v-.13h-.13v.13Zm0-4.46v-.13h-.13v.13h.13Zm0,.13v-.13h-.13v.13h.13Zm-.13,1.15h.13v-.13h-.13v.13Zm0,2.67h.13v-.13h-.13v.13Zm0,.13h.13v-.13h-.13v.13Zm0,.13h.13v-.13h-.13v.13Zm0,.13h.13v-.13h-.13v.13Zm0,.13h.13v-.13h-.13v.13Zm0-4.46v-.13h-.13v.13h.13Zm0,.13v-.13h-.13v.13h.13Zm-.13,1.27h.13v-.13h-.13v.13Zm0,2.55h.13v-.13h-.13v.13Zm0,.13h.13v-.13h-.13v.13Zm0,.13h.13v-.13h-.13v.13Zm0,.13h.13v-.13h-.13v.13Zm.13.13v-.13h-.13v.13h.13Zm-.13-4.46v-.13h-.13v.13h.13Zm0,.13v-.13h-.13v.13h.13Zm-.13,1.27h.13v-.13h-.13v.13Zm0,2.55h.13v-.13h-.13v.13Zm0,.13h.13v-.13h-.13v.13Zm0,.13h.13v-.13h-.13v.13Zm.13.13v-.13h-.13v.13h.13Zm-.13-4.33v-.13h-.13v.13h.13Zm0,.13v-.13h-.13v.13h.13Zm-.13,1.02h.13v-.13h-.13v.13Zm0,.26h.13v-.13h-.13v.13Zm0,2.55h.13v-.13h-.13v.13Zm0,.13h.13v-.13h-.13v.13Zm.13.13v-.13h-.13v.13h.13Zm-.13-4.2v-.13h-.13v.13h.13Zm-.13.13h.13v-.13h-.13v.13Zm0,.89h.13v-.13h-.13v.13Zm0,.51h.13v-.13h-.13v.13Zm0,2.29h.13v-.13h-.13v.13Zm0,.13h.13v-.13h-.13v.13Zm.13.13v-.13h-.13v.13h.13Zm-.13-4.07v-.13h-.13v.13h.13Zm0,.13v-.13h-.13v.13h.13Zm-.13.13h.13v-.13h-.13v.13Zm0,.64h.13v-.13h-.13v.13Zm0,.77h.13v-.13h-.13v.13Zm0,2.16h.13v-.13h-.13v.13Zm0,.13h.13v-.13h-.13v.13Zm0-3.82v-.13h-.13v.13h.13Zm0,.13v-.13h-.13v.13h.13Zm-.13.64h.13v-.13h-.13v.13Zm0,.77h.13v-.13h-.13v.13Zm0,2.16h.13v-.13h-.13v.13Zm.13.13v-.13h-.13v.13h.13Zm-.13-3.82v-.13h-.13v.13h.13Zm-.13.13h.13v-.13h-.13v.13Zm0,.64h.13v-.13h-.13v.13Zm0,.89h.13v-.13h-.13v.13Zm0,1.79h.13v-.13h-.13v.13Zm0,.13h.13v-.13h-.13v.13Zm.13.13v-.13h-.13v.13h.13Zm-.13-3.56v-.13h-.13v.13h.13Zm0,.13v-.13h-.13v.13h.13Zm-.13.13h.13v-.13h-.13v.13Zm0,.13h.13v-.13h-.13v.13Zm0,.13h.13v-.13h-.13v.13Zm0,.13h.13v-.13h-.13v.13Zm0,.13h.13v-.13h-.13v.13Zm0,.13h.13v-.13h-.13v.13Zm0,.64h.13v-.13h-.13v.13Zm0,1.66h.13v-.13h-.13v.13Zm0,.13h.13v-.13h-.13v.13Zm.13.13v-.13h-.13v.13h.13Zm-.13-3.31v-.13h-.13v.13h.13Zm0,.13v-.13h-.13v.13h.13Zm-.13.13h.13v-.13h-.13v.13Zm0,.64h.13v-.13h-.13v.13Zm0,.51h.13v-.13h-.13v.13Zm0,1.53h.13v-.13h-.13v.13Zm0,.13h.13v-.13h-.13v.13Zm.13.13v-.13h-.13v.13h.13Zm-.13-3.06v-.13h-.13v.13h.13Zm0,.13v-.13h-.13v.13h.13Zm0,.13v-.13h-.13v.13h.13Zm-.13.13h.13v-.13h-.13v.13Zm0,.13h.13v-.13h-.13v.13Zm0,.76h.13v-.13h-.13v.13Zm0,1.28h.13v-.13h-.13v.13Zm0,.13h.13v-.13h-.13v.13Zm0,.13h.13v-.13h-.13v.13Zm.13.13v-.13h-.13v.13h.13Zm-.26-2.8v.13h.13v-.13h-.13Zm0,.13v.13h.13v-.13h-.13Zm0,.13v.13h.13v-.13h-.13Zm0,.13v.13h.13v-.13h-.13Zm0,.13v.13h.13v-.13h-.13Zm0,.13v.13h.13v-.13h-.13Zm0,.38v.13h.13v-.13h-.13Zm0,1.02v.13h.13v-.13h-.13Zm0,.13v.13h.13v-.13h-.13Zm0,.13v.13h.13v-.13h-.13Zm0,.13v.13h.13v-.13h-.13Zm0,.13v.13h.13v-.13h-.13Zm0-2.16v-.13h-.13v.13h.13Zm0,.13v-.13h-.13v.13h.13Zm0,.13v-.13h-.13v.13h.13Zm0,.13v-.13h-.13v.13h.13Zm-.13.13h.13v-.13h-.13v.13Zm0,.13h.13v-.13h-.13v.13Zm0,.13h.13v-.13h-.13v.13Zm0,.13h.13v-.13h-.13v.13Zm0,.13h.13v-.13h-.13v.13Zm0,.13h.13v-.13h-.13v.13Zm0,.13h.13v-.13h-.13v.13Zm0,.13h.13v-.13h-.13v.13Zm0,.13h.13v-.13h-.13v.13Zm0,.13h.13v-.13h-.13v.13Zm0,.13h.13v-.13h-.13v.13Zm.13.13v-.13h-.13v.13h.13Zm0,.13v-.13h-.13v.13h.13Zm-.13-1.66v-.13h-.13v.13h.13Zm0,.13v-.13h-.13v.13h.13Zm0,.13v-.13h-.13v.13h.13Zm0,.13v-.13h-.13v.13h.13Zm0,.13v-.13h-.13v.13h.13Zm0,.13v-.13h-.13v.13h.13Zm0,.13v-.13h-.13v.13h.13Zm0,.13v-.13h-.13v.13h.13Zm0,.13v-.13h-.13v.13h.13Zm0,.13v-.13h-.13v.13h.13Zm0,.13v-.13h-.13v.13h.13Zm0,.13v-.13h-.13v.13h.13Z" fill="#231f20"/><path d="m6.9,8.2v.13h-.13v-.13h.13Zm-.13.13v.13h.13v-.13h-.13Zm0,.13v.13h.13v-.13h-.13Zm0,.13v.13h.13v-.13h-.13Zm0,.13v.13h.13v-.13h-.13Zm0,.13v.13h.13v-.13h-.13Zm0,.13v.13h.13v-.13h-.13Zm0,.13v.13h.13v-.13h-.13Zm0,.26h.13v-.13h-.13v.13Zm.13,1.4v-.13h-.13v.13h.13Zm0,.13v-.13h-.13v.13h.13Zm0,.13v-.13h-.13v.13h.13Zm0,.13v-.13h-.13v.13h.13Zm-.13-3.18v-.13h-.13v.13h.13Zm0,.13v-.13h-.13v.13h.13Zm0,.13v-.13h-.13v.13h.13Zm-.13.13h.13v-.13h-.13v.13Zm0,.13h.13v-.13h-.13v.13Zm0,.13h.13v-.13h-.13v.13Zm0,.13h.13v-.13h-.13v.13Zm0,.13h.13v-.13h-.13v.13Zm0,.13h.13v-.13h-.13v.13Zm0,.13h.13v-.13h-.13v.13Zm0,.13h.13v-.13h-.13v.13Zm0,.13h.13v-.13h-.13v.13Zm0,.13h.13v-.13h-.13v.13Zm0,.13h.13v-.13h-.13v.13Zm0,.13h.13v-.13h-.13v.13Zm.13.89v-.13h-.13v.13h.13Zm0,.13v-.13h-.13v.13h.13Zm-.13.13h.13v-.13h-.13v.13Zm0,.13h.13v-.13h-.13v.13Zm0,.13h.13v-.13h-.13v.13Zm0-3.44v-.13h-.13v.13h.13Zm0,.13v-.13h-.13v.13h.13Zm0,.13v-.13h-.13v.13h.13Zm0,.13v-.13h-.13v.13h.13Zm-.13.26h.13v-.13h-.13v.13Zm0,.13h.13v-.13h-.13v.13Zm0,.13h.13v-.13h-.13v.13Zm0,.13h.13v-.13h-.13v.13Zm0,.13h.13v-.13h-.13v.13Zm0,.64h.13v-.13h-.13v.13Zm0,.13h.13v-.13h-.13v.13Zm0,.13h.13v-.13h-.13v.13Zm0,.13h.13v-.13h-.13v.13Zm0,.13h.13v-.13h-.13v.13Zm.13.51v-.13h-.13v.13h.13Zm-.13.13h.13v-.13h-.13v.13Zm0,.13h.13v-.13h-.13v.13Zm0,.13h.13v-.13h-.13v.13Zm0,.13h.13v-.13h-.13v.13Zm0,.13h.13v-.13h-.13v.13Zm0,.13h.13v-.13h-.13v.13Zm-.13-3.94v.13h.13v-.13h-.13Zm0,.13v.13h.13v-.13h-.13Zm0,.13v.13h.13v-.13h-.13Zm0,.13v.13h.13v-.13h-.13Zm0,.13v.13h.13v-.13h-.13Zm0,.26v.13h.13v-.13h-.13Zm0,.89h.13v-.13h-.13v.13Zm0,.13h.13v-.13h-.13v.13Zm0,.64h.13v-.13h-.13v.13Zm0,.13h.13v-.13h-.13v.13Zm0,.13h.13v-.13h-.13v.13Zm0,.13h.13v-.13h-.13v.13Zm0,.38h.13v-.13h-.13v.13Zm0,.13h.13v-.13h-.13v.13Zm0,.13h.13v-.13h-.13v.13Zm0,.13h.13v-.13h-.13v.13Zm0,.13h.13v-.13h-.13v.13Zm0,.13h.13v-.13h-.13v.13Zm0,.13h.13v-.13h-.13v.13Zm0-3.94v-.13h-.13v.13h.13Zm0,.13v-.13h-.13v.13h.13Zm0,.13v-.13h-.13v.13h.13Zm0,.13v-.13h-.13v.13h.13Zm-.13.51h.13v-.13h-.13v.13Zm0,1.02h.13v-.13h-.13v.13Zm0,.77h.13v-.13h-.13v.13Zm0,.13h.13v-.13h-.13v.13Zm0,.13h.13v-.13h-.13v.13Zm0,.25h.13v-.13h-.13v.13Zm0,.13h.13v-.13h-.13v.13Zm0,.13h.13v-.13h-.13v.13Zm0,.13h.13v-.13h-.13v.13Zm0,.13h.13v-.13h-.13v.13Zm0,.13h.13v-.13h-.13v.13Zm0,.13h.13v-.13h-.13v.13Zm0-4.07v-.13h-.13v.13h.13Zm0,.13v-.13h-.13v.13h.13Zm0,.13v-.13h-.13v.13h.13Zm0,.64v-.13h-.13v.13h.13Zm-.13,1.15h.13v-.13h-.13v.13Zm0,.89h.13v-.13h-.13v.13Zm0,.13h.13v-.13h-.13v.13Zm0,.13h.13v-.13h-.13v.13Zm0,.13h.13v-.13h-.13v.13Zm0,.13h.13v-.13h-.13v.13Zm0,.13h.13v-.13h-.13v.13Zm0,.13h.13v-.13h-.13v.13Zm0,.13h.13v-.13h-.13v.13Zm0,.13h.13v-.13h-.13v.13Zm0,.13h.13v-.13h-.13v.13Zm0-4.2v-.13h-.13v.13h.13Zm0,.13v-.13h-.13v.13h.13Zm0,.13v-.13h-.13v.13h.13Zm0,.38v-.13h-.13v.13h.13Zm0,.13v-.13h-.13v.13h.13Zm0,.13v-.13h-.13v.13h.13Zm0,.26v-.13h-.13v.13h.13Zm-.13,1.15h.13v-.13h-.13v.13Zm0,.89h.13v-.13h-.13v.13Zm0,.13h.13v-.13h-.13v.13Zm0,.13h.13v-.13h-.13v.13Zm0,.13h.13v-.13h-.13v.13Zm0,.13h.13v-.13h-.13v.13Zm0,.13h.13v-.13h-.13v.13Zm0,.13h.13v-.13h-.13v.13Zm0,.13h.13v-.13h-.13v.13Zm0,.13h.13v-.13h-.13v.13Zm-.13-4.45v.13h.13v-.13h-.13Zm0,.13v.13h.13v-.13h-.13Zm0,.51v.13h.13v-.13h-.13Zm0,.64v.13h.13v-.13h-.13Zm0,1.15v.13h.13v-.13h-.13Zm0,1.02v.13h.13v-.13h-.13Zm0,.13v.13h.13v-.13h-.13Zm0,.13v.13h.13v-.13h-.13Zm0,.13v.13h.13v-.13h-.13Zm0,.13v.13h.13v-.13h-.13Zm0,.13v.13h.13v-.13h-.13Zm0,.13v.13h.13v-.13h-.13Zm0,.13v.13h.13v-.13h-.13Zm0-4.33v-.13h-.13v.13h.13Zm0,.13v-.13h-.13v.13h.13Zm-.13.13h.13v-.13h-.13v.13Zm0,2.29h.13v-.13h-.13v.13Zm0,1.14h.13v-.13h-.13v.13Zm0,.13h.13v-.13h-.13v.13Zm0,.13h.13v-.13h-.13v.13Zm0,.13h.13v-.13h-.13v.13Zm0,.13h.13v-.13h-.13v.13Zm0,.13h.13v-.13h-.13v.13Zm0,.13h.13v-.13h-.13v.13Zm0-4.45v-.13h-.13v.13h.13Zm0,.13v-.13h-.13v.13h.13Zm-.13,2.55h.13v-.13h-.13v.13Zm0,1.02h.13v-.13h-.13v.13Zm0,.13h.13v-.13h-.13v.13Zm0,.13h.13v-.13h-.13v.13Zm0,.13h.13v-.13h-.13v.13Zm0,.13h.13v-.13h-.13v.13Zm0,.13h.13v-.13h-.13v.13Zm.13.13v-.13h-.13v.13h.13Zm-.13-4.58v-.13h-.13v.13h.13Zm0,.13v-.13h-.13v.13h.13Zm-.13,1.02h.13v-.13h-.13v.13Zm0,2.8h.13v-.13h-.13v.13Zm0,.13h.13v-.13h-.13v.13Zm0,.13h.13v-.13h-.13v.13Zm0,.13h.13v-.13h-.13v.13Zm0,.13h.13v-.13h-.13v.13Zm0-4.46v-.13h-.13v.13h.13Zm0,.13v-.13h-.13v.13h.13Zm-.13,1.15h.13v-.13h-.13v.13Zm0,2.67h.13v-.13h-.13v.13Zm0,.13h.13v-.13h-.13v.13Zm0,.13h.13v-.13h-.13v.13Zm0,.13h.13v-.13h-.13v.13Zm0,.13h.13v-.13h-.13v.13Zm0-4.46v-.13h-.13v.13h.13Zm0,.13v-.13h-.13v.13h.13Zm-.13,1.27h.13v-.13h-.13v.13Zm0,2.55h.13v-.13h-.13v.13Zm0,.13h.13v-.13h-.13v.13Zm0,.13h.13v-.13h-.13v.13Zm0,.13h.13v-.13h-.13v.13Zm.13.13v-.13h-.13v.13h.13Zm-.13-4.46v-.13h-.13v.13h.13Zm0,.13v-.13h-.13v.13h.13Zm-.13,1.27h.13v-.13h-.13v.13Zm0,2.55h.13v-.13h-.13v.13Zm0,.13h.13v-.13h-.13v.13Zm0,.13h.13v-.13h-.13v.13Zm.13.13v-.13h-.13v.13h.13Zm-.13-4.33v-.13h-.13v.13h.13Zm0,.13v-.13h-.13v.13h.13Zm-.13,1.02h.13v-.13h-.13v.13Zm0,.26h.13v-.13h-.13v.13Zm0,2.55h.13v-.13h-.13v.13Zm0,.13h.13v-.13h-.13v.13Zm.13.13v-.13h-.13v.13h.13Zm-.13-4.2v-.13h-.13v.13h.13Zm-.13.13h.13v-.13h-.13v.13Zm0,.89h.13v-.13h-.13v.13Zm0,.51h.13v-.13h-.13v.13Zm0,2.29h.13v-.13h-.13v.13Zm0,.13h.13v-.13h-.13v.13Zm.13.13v-.13h-.13v.13h.13Zm-.13-4.07v-.13h-.13v.13h.13Zm0,.13v-.13h-.13v.13h.13Zm-.13.13h.13v-.13h-.13v.13Zm0,.64h.13v-.13h-.13v.13Zm0,.77h.13v-.13h-.13v.13Zm0,2.16h.13v-.13h-.13v.13Zm0,.13h.13v-.13h-.13v.13Zm0-3.82v-.13h-.13v.13h.13Zm0,.13v-.13h-.13v.13h.13Zm-.13.64h.13v-.13h-.13v.13Zm0,.77h.13v-.13h-.13v.13Zm0,2.16h.13v-.13h-.13v.13Zm.13.13v-.13h-.13v.13h.13Zm-.13-3.82v-.13h-.13v.13h.13Zm-.13.13h.13v-.13h-.13v.13Zm0,.64h.13v-.13h-.13v.13Zm0,.89h.13v-.13h-.13v.13Zm0,1.79h.13v-.13h-.13v.13Zm0,.13h.13v-.13h-.13v.13Zm.13.13v-.13h-.13v.13h.13Zm-.13-3.56v-.13h-.13v.13h.13Zm0,.13v-.13h-.13v.13h.13Zm-.13.13h.13v-.13h-.13v.13Zm0,.13h.13v-.13h-.13v.13Zm0,.13h.13v-.13h-.13v.13Zm0,.13h.13v-.13h-.13v.13Zm0,.13h.13v-.13h-.13v.13Zm0,.13h.13v-.13h-.13v.13Zm0,.64h.13v-.13h-.13v.13Zm0,1.66h.13v-.13h-.13v.13Zm0,.13h.13v-.13h-.13v.13Zm.13.13v-.13h-.13v.13h.13Zm-.13-3.31v-.13h-.13v.13h.13Zm0,.13v-.13h-.13v.13h.13Zm-.13.13h.13v-.13h-.13v.13Zm0,.64h.13v-.13h-.13v.13Zm0,.51h.13v-.13h-.13v.13Zm0,1.53h.13v-.13h-.13v.13Zm0,.13h.13v-.13h-.13v.13Zm.13.13v-.13h-.13v.13h.13Zm-.13-3.06v-.13h-.13v.13h.13Zm0,.13v-.13h-.13v.13h.13Zm0,.13v-.13h-.13v.13h.13Zm-.13.13h.13v-.13h-.13v.13Zm0,.13h.13v-.13h-.13v.13Zm0,.76h.13v-.13h-.13v.13Zm0,1.28h.13v-.13h-.13v.13Zm0,.13h.13v-.13h-.13v.13Zm0,.13h.13v-.13h-.13v.13Zm.13.13v-.13h-.13v.13h.13Zm-.26-2.8v.13h.13v-.13h-.13Zm0,.13v.13h.13v-.13h-.13Zm0,.13v.13h.13v-.13h-.13Zm0,.13v.13h.13v-.13h-.13Zm0,.13v.13h.13v-.13h-.13Zm0,.13v.13h.13v-.13h-.13Zm0,.38v.13h.13v-.13h-.13Zm0,1.02v.13h.13v-.13h-.13Zm0,.13v.13h.13v-.13h-.13Zm0,.13v.13h.13v-.13h-.13Zm0,.13v.13h.13v-.13h-.13Zm0,.13v.13h.13v-.13h-.13Zm0-2.16v-.13h-.13v.13h.13Zm0,.13v-.13h-.13v.13h.13Zm0,.13v-.13h-.13v.13h.13Zm0,.13v-.13h-.13v.13h.13Zm-.13.13h.13v-.13h-.13v.13Zm0,.13h.13v-.13h-.13v.13Zm0,.13h.13v-.13h-.13v.13Zm0,.13h.13v-.13h-.13v.13Zm0,.13h.13v-.13h-.13v.13Zm0,.13h.13v-.13h-.13v.13Zm0,.13h.13v-.13h-.13v.13Zm0,.13h.13v-.13h-.13v.13Zm0,.13h.13v-.13h-.13v.13Zm0,.13h.13v-.13h-.13v.13Zm0,.13h.13v-.13h-.13v.13Zm.13.13v-.13h-.13v.13h.13Zm0,.13v-.13h-.13v.13h.13Zm-.13-1.66v-.13h-.13v.13h.13Zm0,.13v-.13h-.13v.13h.13Zm0,.13v-.13h-.13v.13h.13Zm0,.13v-.13h-.13v.13h.13Zm0,.13v-.13h-.13v.13h.13Zm0,.13v-.13h-.13v.13h.13Zm0,.13v-.13h-.13v.13h.13Zm0,.13v-.13h-.13v.13h.13Zm0,.13v-.13h-.13v.13h.13Zm0,.13v-.13h-.13v.13h.13Zm0,.13v-.13h-.13v.13h.13Zm0,.13v-.13h-.13v.13h.13Z" fill="#231f20"/></svg>