<?xml version="1.0" encoding="UTF-8"?><svg id="Layer_1" xmlns="http://www.w3.org/2000/svg" viewBox="0 0 16 16"><circle cx="8" cy="8" r="7.34" fill="#fff" stroke="#231f20" stroke-miterlimit="10"/><path d="m11.73,6.86v.33h.32v-.33h-.32Zm0,.33v.32h.32v-.32h-.32Zm0,.32v.33h.32v-.33h-.32Zm0,.33v.32h.32v-.32h-.32Zm0,.32v.33h.32v-.33h-.32Zm0,.33v.32h.32v-.32h-.32Zm0,.65h.32v-.33h-.32v.33Zm.32,3.56v-.32h-.32v.32h.32Zm-.64-5.51h.32v-.33h-.32v.33Zm0,.32h.32v-.32h-.32v.32Zm0,.33h.32v-.33h-.32v.33Zm0,.32h.32v-.32h-.32v.32Zm0,.33h.32v-.33h-.32v.33Zm0,.32h.32v-.32h-.32v.32Zm0,.33h.32v-.33h-.32v.33Zm0,.32h.32v-.32h-.32v.32Zm0,.32h.32v-.32h-.32v.32Zm0,.33h.32v-.33h-.32v.33Zm.32,2.27v-.33h-.32v.33h.32Zm0,.32v-.32h-.32v.32h.32Zm-.65-5.51h.33v-.33h-.33v.33Zm0,.32h.33v-.32h-.33v.32Zm0,.33h.33v-.33h-.33v.33Zm0,1.62h.33v-.32h-.33v.32Zm0,.32h.33v-.32h-.33v.32Zm0,.33h.33v-.33h-.33v.33Zm0,.32h.33v-.32h-.33v.32Zm0,.33h.33v-.33h-.33v.33Zm.33,1.29v-.32h-.33v.32h.33Zm-.33.33h.33v-.33h-.33v.33Zm0,.32h.33v-.32h-.33v.32Zm-.32-4.54h.32v-.32h-.32v.32Zm0,.33h.32v-.33h-.32v.33Zm0,1.62h.32v-.33h-.32v.33Zm0,.32h.32v-.32h-.32v.32Zm0,.33h.32v-.33h-.32v.33Zm0,.32h.32v-.32h-.32v.32Zm0,.97h.32v-.32h-.32v.32Zm0,.33h.32v-.33h-.32v.33Zm0,.32h.32v-.32h-.32v.32Zm-.33-3.89h.33v-.32h-.33v.32Zm0,1.95h.33v-.33h-.33v.33Zm0,.32h.33v-.32h-.33v.32Zm0,.33h.33v-.33h-.33v.33Zm0,.64h.33v-.32h-.33v.32Zm0,.33h.33v-.33h-.33v.33Zm0,.32h.33v-.32h-.33v.32Zm-.32-3.89h.32v-.32h-.32v.32Zm0,2.27h.32v-.32h-.32v.32Zm0,.33h.32v-.33h-.32v.33Zm0,.32h.32v-.32h-.32v.32Zm0,.32h.32v-.32h-.32v.32Zm0,.33h.32v-.33h-.32v.33Zm0,.32h.32v-.32h-.32v.32Zm-.33-3.56h.33v-.33h-.33v.33Zm0,2.27h.33v-.33h-.33v.33Zm0,.32h.33v-.32h-.33v.32Zm0,.32h.33v-.32h-.33v.32Zm0,.33h.33v-.33h-.33v.33Zm0,.32h.33v-.32h-.33v.32Zm-.32-3.89v.33h.32v-.33h-.32Zm0,2.6v.32h.32v-.32h-.32Zm0,.32v.32h.32v-.32h-.32Zm0,.32v.33h.32v-.33h-.32Zm0,.33v.32h.32v-.32h-.32Zm-.32-3.24h.32v-.33h-.32v.33Zm0,2.91h.32v-.32h-.32v.32Zm0,.33h.32v-.33h-.32v.33Zm0,.32h.32v-.32h-.32v.32Zm-.33-3.24h.33v-.32h-.33v.32Zm0,2.59h.33v-.32h-.33v.32Zm0,.33h.33v-.33h-.33v.33Zm0,.32h.33v-.32h-.33v.32Zm0,.33h.33v-.33h-.33v.33Zm-.32-.65h.32v-.33h-.32v.33Zm0,.32h.32v-.32h-.32v.32Zm0,.33h.32v-.33h-.32v.33Zm0,.32h.32v-.32h-.32v.32Zm-.33-.97h.33v-.33h-.33v.33Zm0,.32h.33v-.32h-.33v.32Zm0,.33h.33v-.33h-.33v.33Zm0,.32h.33v-.32h-.33v.32Zm-.32-.97h.32v-.33h-.32v.33Zm0,.32h.32v-.32h-.32v.32Zm0,.33h.32v-.33h-.32v.33Zm0,.32h.32v-.32h-.32v.32Zm.32.33v-.33h-.32v.33h.32Zm-.65-1.3h.33v-.33h-.33v.33Zm0,.32h.33v-.32h-.33v.32Zm0,.33h.33v-.33h-.33v.33Zm.33.32v-.32h-.33v.32h.33Zm-.65-.97h.32v-.33h-.32v.33Zm0,.32h.32v-.32h-.32v.32Zm.32.33v-.33h-.32v.33h.32Zm-.65-.98h.33v-.32h-.33v.32Zm0,.33h.33v-.33h-.33v.33Zm.33.32v-.32h-.33v.32h.33Zm-.65-.65h.32v-.32h-.32v.32Zm0,.33h.32v-.33h-.32v.33Zm-.32-.33h.32v-.32h-.32v.32Zm.32.33v-.33h-.32v.33h.32Zm-.65-.97h.33v-.33h-.33v.33Zm0,.32h.33v-.32h-.33v.32Zm.33.32v-.32h-.33v.32h.33Zm-.65-.97h.32v-.32h-.32v.32Zm0,.33h.32v-.33h-.32v.33Zm.32.32v-.32h-.32v.32h.32Zm-.65-.97h.33v-.33h-.33v.33Zm0,.32h.33v-.32h-.33v.32Zm.33.33v-.33h-.33v.33h.33Zm-.65-1.3h.32v-.33h-.32v.33Zm0,.32h.32v-.32h-.32v.32Zm0,.33h.32v-.33h-.32v.33Zm.32.32v-.32h-.32v.32h.32Zm-.65-1.94v.32h.33v-.32h-.33Zm0,.32v.32h.33v-.32h-.33Zm0,.32v.33h.33v-.33h-.33Zm0,.33v.32h.33v-.32h-.33Zm0,.32v.33h.33v-.33h-.33Zm-.32-3.24h.32v-.33h-.32v.33Zm0,.32h.32v-.32h-.32v.32Zm0,.33h.32v-.33h-.32v.33Zm0,.32h.32v-.32h-.32v.32Zm0,.33h.32v-.33h-.32v.33Zm0,.32h.32v-.32h-.32v.32Zm0,.33h.32v-.33h-.32v.33Zm0,.32h.32v-.32h-.32v.32Zm.32.32v-.32h-.32v.32h.32Zm0,.33v-.33h-.32v.33h.32Zm-.32-2.92v-.33h-.32v.33h.32Zm0,.32v-.32h-.32v.32h.32Zm0,.33v-.33h-.32v.33h.32Zm0,.32v-.32h-.32v.32h.32Zm0,.33v-.33h-.32v.33h.32Zm0,.32v-.32h-.32v.32h.32Zm0,.33v-.33h-.32v.33h.32Zm0,.32v-.32h-.32v.32h.32Z" fill="#231f20"/><polyline points="4.47 7.54 4.79 7.54 4.79 7.22 4.47 7.22" fill="#231f20"/><polyline points="4.47 7.87 4.79 7.87 4.79 7.54 4.47 7.54" fill="#231f20"/><rect x="4.79" y="7.87" width=".33" height=".32" fill="#231f20"/><rect x="5.12" y="7.87" width=".32" height=".32" fill="#231f20"/><rect x="5.44" y="8.19" width=".33" height=".33" fill="#231f20"/><rect x="5.77" y="8.19" width=".32" height=".33" fill="#231f20"/><rect x="6.09" y="8.19" width=".32" height=".33" fill="#231f20"/><rect x="6.41" y="8.52" width=".33" height=".32" fill="#231f20"/><polyline points="8.74 7.22 8.42 7.22 8.42 7.54 8.74 7.54" fill="#231f20"/><polyline points="8.74 7.54 8.42 7.54 8.42 7.87 8.74 7.87" fill="#231f20"/><rect x="8.09" y="7.87" width=".33" height=".32" fill="#231f20"/><rect x="7.77" y="7.87" width=".32" height=".32" fill="#231f20"/><rect x="7.44" y="8.19" width=".33" height=".33" fill="#231f20"/><rect x="7.12" y="8.19" width=".32" height=".33" fill="#231f20"/><rect x="6.8" y="8.19" width=".32" height=".33" fill="#231f20"/><rect x="6.47" y="8.52" width=".33" height=".32" fill="#231f20"/><polyline points="8.47 7.84 8.79 7.84 8.79 7.52 8.47 7.52" fill="#231f20"/><polyline points="8.47 7.52 8.79 7.52 8.79 7.19 8.47 7.19" fill="#231f20"/><rect x="8.79" y="6.87" width=".33" height=".32" fill="#231f20"/><rect x="9.12" y="6.87" width=".32" height=".32" fill="#231f20"/><rect x="9.44" y="6.54" width=".33" height=".33" fill="#231f20"/><rect x="9.77" y="6.54" width=".32" height=".33" fill="#231f20"/><rect x="10.09" y="6.54" width=".32" height=".33" fill="#231f20"/><rect x="10.41" y="6.22" width=".33" height=".32" fill="#231f20"/><polyline points="10.44 6.55 10.77 6.55 10.77 6.22" fill="#231f20"/><polyline points="10.77 6.22 10.77 6.55 11.09 6.55 11.09 6.22" fill="#231f20"/><polyline points="11.09 6.22 11.09 6.55 11.41 6.55 11.41 6.22" fill="#231f20"/><rect x="11.41" y="6.55" width=".33" height=".32" fill="#231f20"/></svg>