<?xml version="1.0" encoding="UTF-8"?>
<svg id="Layer_1" data-name="Layer 1" xmlns="http://www.w3.org/2000/svg" viewBox="0 0 16 16">
  <path d="m0,7.95h2.57v.37H.39v1.17h-.39v-1.54Z" fill="#FFF" />
  <path
    d="m4.63,10.17c-.28-.12-.54-.29-.75-.51-.22-.22-.39-.47-.51-.75-.12-.28-.19-.59-.19-.91s.06-.62.19-.91c.12-.28.29-.54.51-.75.22-.22.47-.39.75-.51s.59-.18.91-.18.63.06.91.18c.28.12.54.29.75.51.22.22.39.47.51.75.12.28.19.59.19.91s-.06.62-.19.91c-.12.28-.29.54-.51.75-.22.22-.47.39-.75.51-.28.12-.59.18-.91.18s-.62-.06-.91-.18Zm1.66-.41c.23-.1.43-.24.61-.41.18-.18.31-.38.41-.61.1-.23.15-.48.15-.75s-.05-.51-.15-.75c-.1-.23-.24-.44-.41-.61-.18-.18-.38-.31-.61-.41-.23-.1-.48-.15-.75-.15s-.51.05-.74.15c-.23.1-.43.24-.61.41-.17.18-.31.38-.41.61-.1.23-.15.48-.15.75s.05.51.15.75c.1.23.23.44.41.61.17.18.38.31.61.41.23.1.48.15.74.15s.52-.05.75-.15Zm-1.63-.78s-.05-.1-.05-.17v-1.69c0-.07.02-.13.05-.17.04-.04.09-.06.15-.06.07,0,.12.02.16.06.04.04.05.1.05.17v.66h1.03v-.66c0-.07.02-.13.05-.17.04-.04.09-.06.15-.06.07,0,.12.02.16.06.04.04.05.1.05.17v1.69c0,.07-.02.13-.05.17-.04.04-.09.06-.16.06-.06,0-.11-.02-.15-.06-.04-.04-.05-.1-.05-.17v-.72h-1.03v.72c0,.07-.02.13-.05.17-.04.04-.09.06-.16.06-.06,0-.11-.02-.15-.06Z"
    fill="#FFF" />
  <path d="m8.65,8.16h1.87v.47h-1.87v-.47Z" fill="#FFF" />
  <path
    d="m12.73,10.17c-.28-.12-.54-.29-.75-.51-.22-.22-.39-.47-.51-.75-.12-.28-.19-.59-.19-.91s.06-.62.19-.91c.12-.28.29-.54.51-.75.22-.22.47-.39.75-.51.28-.12.59-.18.91-.18s.63.06.91.18c.28.12.54.29.75.51.22.22.39.47.51.75.12.28.19.59.19.91s-.06.62-.19.91-.29.54-.51.75c-.22.22-.47.39-.75.51s-.59.18-.91.18-.62-.06-.91-.18Zm1.66-.41c.23-.1.43-.24.61-.41.18-.18.31-.38.41-.61.1-.23.15-.48.15-.75s-.05-.51-.15-.75c-.1-.23-.24-.44-.41-.61-.18-.18-.38-.31-.61-.41-.23-.1-.48-.15-.75-.15s-.51.05-.74.15c-.23.1-.43.24-.61.41s-.31.38-.41.61c-.1.23-.15.48-.15.75s.05.51.15.75c.1.23.23.44.41.61.17.18.38.31.61.41.23.1.48.15.74.15s.52-.05.75-.15Zm-1.4-.78s-.05-.1-.05-.17v-1.66c0-.07.02-.13.05-.17s.09-.07.15-.07h1.1c.05,0,.09.02.12.05.03.03.05.07.05.12s-.02.09-.05.12c-.03.03-.07.05-.12.05h-.89v.57h.8c.05,0,.09.01.12.04s.05.07.05.12-.02.09-.05.12c-.03.03-.07.04-.12.04h-.8v.67c0,.07-.02.13-.05.17-.04.04-.09.06-.16.06-.07,0-.12-.02-.15-.06Z"
    fill="#FFF" />
</svg>